<svg width="100" height="40" viewBox="0 0 100 40" fill="none" xmlns="http://www.w3.org/2000/svg">
<rect width="100" height="40" fill="white"/>
<path d="M8.10781 8.72L14.0678 7.76V13.96H21.2278V18.92H14.0678V26.32C14.0678 27.5733 14.2811 28.5733 14.7078 29.32C15.1611 30.0667 16.0545 30.44 17.3878 30.44C18.0278 30.44 18.6811 30.3867 19.3478 30.28C20.0411 30.1467 20.6678 29.9733 21.2278 29.76L22.0678 34.4C21.3478 34.6933 20.5478 34.9467 19.6678 35.16C18.7878 35.3733 17.7078 35.48 16.4278 35.48C14.8011 35.48 13.4545 35.2667 12.3878 34.84C11.3211 34.3867 10.4678 33.7733 9.82781 33C9.18781 32.2 8.73448 31.24 8.46781 30.12C8.22781 29 8.10781 27.76 8.10781 26.4V8.72ZM44.98 24.44C44.98 26.0933 44.74 27.6133 44.26 29C43.78 30.36 43.0867 31.5333 42.18 32.52C41.2733 33.48 40.18 34.2267 38.9 34.76C37.6467 35.2933 36.2333 35.56 34.66 35.56C33.1133 35.56 31.7 35.2933 30.42 34.76C29.1667 34.2267 28.0867 33.48 27.18 32.52C26.2733 31.5333 25.5667 30.36 25.06 29C24.5533 27.6133 24.3 26.0933 24.3 24.44C24.3 22.7867 24.5533 21.28 25.06 19.92C25.5933 18.56 26.3133 17.4 27.22 16.44C28.1533 15.48 29.2467 14.7333 30.5 14.2C31.78 13.6667 33.1667 13.4 34.66 13.4C36.18 13.4 37.5667 13.6667 38.82 14.2C40.1 14.7333 41.1933 15.48 42.1 16.44C43.0067 17.4 43.7133 18.56 44.22 19.92C44.7267 21.28 44.98 22.7867 44.98 24.44ZM38.9 24.44C38.9 22.6 38.5267 21.16 37.78 20.12C37.06 19.0533 36.02 18.52 34.66 18.52C33.3 18.52 32.2467 19.0533 31.5 20.12C30.7533 21.16 30.38 22.6 30.38 24.44C30.38 26.28 30.7533 27.7467 31.5 28.84C32.2467 29.9067 33.3 30.44 34.66 30.44C36.02 30.44 37.06 29.9067 37.78 28.84C38.5267 27.7467 38.9 26.28 38.9 24.44ZM54.6769 24.32C54.6769 26.16 55.0902 27.64 55.9169 28.76C56.7435 29.88 57.9702 30.44 59.5969 30.44C60.1302 30.44 60.6235 30.4267 61.0769 30.4C61.5302 30.3467 61.9035 30.2933 62.1969 30.24V19.4C61.8235 19.16 61.3302 18.96 60.7169 18.8C60.1302 18.64 59.5302 18.56 58.9169 18.56C56.0902 18.56 54.6769 20.48 54.6769 24.32ZM68.1569 34.32C67.6235 34.48 67.0102 34.64 66.3169 34.8C65.6235 34.9333 64.8902 35.0533 64.1169 35.16C63.3702 35.2667 62.5969 35.3467 61.7969 35.4C61.0235 35.48 60.2769 35.52 59.5569 35.52C57.8235 35.52 56.2769 35.2667 54.9169 34.76C53.5569 34.2533 52.4102 33.5333 51.4769 32.6C50.5435 31.64 49.8235 30.4933 49.3169 29.16C48.8369 27.8 48.5969 26.28 48.5969 24.6C48.5969 22.8933 48.8102 21.36 49.2369 20C49.6635 18.6133 50.2769 17.44 51.0769 16.48C51.8769 15.52 52.8502 14.7867 53.9969 14.28C55.1702 13.7733 56.5035 13.52 57.9969 13.52C58.8235 13.52 59.5569 13.6 60.1969 13.76C60.8635 13.92 61.5302 14.1467 62.1969 14.44V4.92L68.1569 3.96V34.32ZM91.6975 34.28C90.6842 34.5733 89.3775 34.84 87.7775 35.08C86.1775 35.3467 84.4975 35.48 82.7375 35.48C80.9508 35.48 79.4575 35.24 78.2575 34.76C77.0842 34.28 76.1508 33.6133 75.4575 32.76C74.7642 31.88 74.2708 30.84 73.9775 29.64C73.6842 28.44 73.5375 27.12 73.5375 25.68V13.96H79.4975V24.96C79.4975 26.88 79.7508 28.2667 80.2575 29.12C80.7642 29.9733 81.7108 30.4 83.0975 30.4C83.5242 30.4 83.9775 30.3867 84.4575 30.36C84.9375 30.3067 85.3642 30.2533 85.7375 30.2V13.96H91.6975V34.28Z" fill="#333333"/>
</svg>
